<?xml version="1.0" encoding="UTF-8"?>
<!-- Created with Inkscape (http://www.inkscape.org/) -->
<svg width="10" height="10" version="1.1" viewBox="0 0 2.6458 2.6458" xmlns="http://www.w3.org/2000/svg">
 <path d="m1.3229 0.28637c-0.27491 0-0.53856 0.10921-0.73295 0.3036-0.19439 0.19439-0.3036 0.45804-0.3036 0.73295 0 0.13612 0.026811 0.27091 0.078901 0.39667 0.052093 0.12576 0.12844 0.24003 0.2247 0.33628 0.096253 0.096253 0.21052 0.1726 0.33628 0.2247 0.12576 0.052089 0.26055 0.078901 0.39667 0.078901 0.13612 0 0.27091-0.026811 0.39667-0.078901 0.12576-0.052093 0.24003-0.12844 0.33628-0.2247 0.096253-0.096253 0.1726-0.21052 0.2247-0.33628 0.052093-0.12576 0.078901-0.26055 0.078901-0.39667 0-0.27491-0.10921-0.53856-0.3036-0.73295s-0.45804-0.3036-0.73295-0.3036zm-0.91619 0.12036c0.24299-0.24299 0.57255-0.3795 0.91619-0.3795 0.34364 0 0.6732 0.13651 0.91619 0.3795s0.3795 0.57255 0.3795 0.91619c0 0.17015-0.033516 0.33864-0.098629 0.49584-0.065116 0.1572-0.16055 0.30004-0.28087 0.42035-0.12032 0.12032-0.26315 0.21575-0.42035 0.28087-0.1572 0.065113-0.32569 0.098629-0.49584 0.098629-0.17015 0-0.33864-0.033516-0.49584-0.098629-0.1572-0.065116-0.30004-0.16055-0.42035-0.28087-0.12032-0.12032-0.21575-0.26315-0.28087-0.42035-0.065114-0.1572-0.098627-0.32569-0.098627-0.49584 0-0.34364 0.13651-0.6732 0.3795-0.91619zm0.78662 0.39791c0-0.071559 0.05801-0.12957 0.12957-0.12957h0.00129c0.071559 0 0.12957 0.058007 0.12957 0.12957 0 0.071559-0.058007 0.12957-0.12957 0.12957h-0.00129c-0.071559 0-0.12957-0.05801-0.12957-0.12957zm-0.11022 0.45016c0.023608-0.038202 0.065311-0.061453 0.11021-0.061453h0.12957c0.071559 0 0.12957 0.05801 0.12957 0.12957v0.22855l0.11589 0.23178c0.020082 0.040165 0.017933 0.087863-0.00568 0.12606-0.023608 0.038198-0.065315 0.061449-0.11022 0.061449h-0.12957c-0.071559 0-0.12957-0.058007-0.12957-0.12957v-0.22855l-0.11588-0.23178c-0.020082-0.040165-0.017936-0.087863 0.00568-0.12606z" clip-rule="evenodd" fill="#b2b2b2" fill-rule="evenodd" strokeWidth=".31096"/>
</svg>

<svg width="20" height="20" viewBox="0 0 20 20" fill="none" xmlns="http://www.w3.org/2000/svg">
<path fill-rule="evenodd" clip-rule="evenodd" d="M14.707 7.29296C14.5194 7.10549 14.2651 7.00017 14 7.00017C13.7348 7.00017 13.4805 7.10549 13.293 7.29296L9.99997 10.586L6.70697 7.29296C6.61472 7.19745 6.50438 7.12127 6.38237 7.06886C6.26037 7.01645 6.12915 6.98886 5.99637 6.98771C5.86359 6.98655 5.73191 7.01186 5.60901 7.06214C5.48612 7.11242 5.37446 7.18667 5.28057 7.28056C5.18668 7.37446 5.11243 7.48611 5.06215 7.609C5.01186 7.7319 4.98656 7.86358 4.98772 7.99636C4.98887 8.12914 5.01646 8.26036 5.06887 8.38236C5.12127 8.50437 5.19746 8.61471 5.29297 8.70696L9.29297 12.707C9.4805 12.8944 9.7348 12.9997 9.99997 12.9997C10.2651 12.9997 10.5194 12.8944 10.707 12.707L14.707 8.70696C14.8944 8.51943 14.9998 8.26512 14.9998 7.99996C14.9998 7.73479 14.8944 7.48049 14.707 7.29296Z" fill="white"></path>
</svg>
