<?xml version="1.0" encoding="UTF-8"?>
<!-- Created with Inkscape (http://www.inkscape.org/) -->
<svg width="32" height="32" version="1.1" viewBox="0 0 8.4667 8.4667" xmlns="http://www.w3.org/2000/svg">
 <path d="m4.7524 0.59952c0-0.13768-0.054702-0.26972-0.15204-0.36707-0.097366-0.097354-0.22938-0.15205-0.36708-0.15205-0.13766 0-0.26971 0.054692-0.36708 0.15205-0.097334 0.097354-0.15204 0.22939-0.15204 0.36707v0.51912c0 0.13768 0.054702 0.26972 0.15204 0.36707 0.097366 0.097354 0.22942 0.15205 0.36708 0.15205 0.1377 0 0.26971-0.054692 0.36708-0.15205 0.097334-0.097354 0.15204-0.22939 0.15204-0.36707zm2.4175 1.4312c0.094576-0.097905 0.14688-0.22904 0.14571-0.36515-0.0012005-0.13611-0.055772-0.26631-0.15204-0.36256-0.096231-0.096247-0.22643-0.15084-0.36254-0.15203-0.13614-0.0011811-0.26725 0.051143-0.36517 0.1457l-0.36702 0.36702c-0.094544 0.097908-0.14688 0.22904-0.14571 0.36515 0.0012 0.13611 0.055773 0.26632 0.15204 0.36255 0.096264 0.096264 0.22646 0.15084 0.36257 0.15204 0.13611 0.00117 0.26722-0.051132 0.36513-0.14571zm1.2163 2.2026c0 0.1377-0.054703 0.26971-0.15204 0.36708-0.097365 0.097334-0.22938 0.15204-0.36708 0.15204h-0.51912c-0.13766 0-0.26971-0.054702-0.36708-0.15204-0.097334-0.097366-0.15204-0.22938-0.15204-0.36708 0-0.13766 0.054702-0.26971 0.15204-0.36708 0.097366-0.097334 0.22942-0.15204 0.36708-0.15204h0.51912c0.1377 0 0.26971 0.054702 0.36708 0.15204 0.09734 0.097366 0.15204 0.22942 0.15204 0.36708zm-6.7225-1.8356c0.047888 0.049575 0.10517 0.089126 0.1685 0.11635 0.063335 0.027189 0.13145 0.04153 0.20038 0.042113 0.068929 6.164e-4 0.13728-0.012524 0.20108-0.038642 0.063806-0.026086 0.12175-0.06463 0.17048-0.11339 0.048765-0.048732 0.087308-0.10668 0.11339-0.17048 0.026118-0.0638 0.039259-0.13215 0.038642-0.20108-5.845e-4 -0.068929-0.014925-0.13705-0.042114-0.20038-0.027221-0.063332-0.066771-0.12061-0.11635-0.1685l-0.36701-0.36702c-0.097905-0.09456-0.22904-0.14688-0.36515-0.1457-0.13611 0.00118-0.26631 0.055779-0.36256 0.15203-0.096248 0.09625-0.15084 0.22645-0.15203 0.36256-0.00118 0.13611 0.051142 0.26724 0.1457 0.36515zm-0.025956 1.8356c0 0.1377-0.054692 0.26971-0.15205 0.36708-0.097354 0.097334-0.22939 0.15204-0.36707 0.15204h-0.51912c-0.13768 0-0.26972-0.054702-0.36707-0.15204-0.097354-0.097366-0.15205-0.22938-0.15205-0.36708 0-0.13766 0.054692-0.26971 0.15205-0.36708 0.097354-0.097334 0.22939-0.15204 0.36707-0.15204h0.51912c0.13768 0 0.26972 0.054702 0.36707 0.15204 0.097354 0.097366 0.15205 0.22942 0.15205 0.36708zm1.5573 3.1147v-0.51912h2.0765v0.51912c0 0.27536-0.10937 0.53943-0.30407 0.73416-0.19473 0.1947-0.4588 0.30407-0.73416 0.30407-0.27536 0-0.53943-0.10937-0.73413-0.30407-0.1947-0.19473-0.3041-0.4588-0.3041-0.73416zm2.0765-1.0382c0.0077868-0.1765 0.10798-0.33535 0.24762-0.44592 0.33882-0.26721 0.58598-0.63332 0.7071-1.0475 0.12115-0.41416 0.11025-0.85576-0.031147-1.2635-0.14143-0.40767-0.40634-0.76115-0.75791-1.0113-0.3516-0.25018-0.77238-0.38461-1.2039-0.38461-0.43152 0-0.85229 0.13443-1.2039 0.38461-0.3516 0.25018-0.61652 0.60367-0.75792 1.0113-0.14141 0.4077-0.15231 0.84931-0.031173 1.2635 0.12116 0.41416 0.36829 0.78026 0.70711 1.0475 0.14016 0.11057 0.23983 0.26942 0.2471 0.44592h2.0775z" fill="#fff" stroke-width=".32445"/>
</svg>
